# xmcd
#
# Track frame offsets: 
#        150
#        20476
#        51152
#        70803
#        92329
#        112730
#        135381
#        150457
#        174008
#        192759
#
# Disc length: 2922 seconds
#
# Revision: 2
# Processed by: cddbd v1.5.2PL0 Copyright (c) Steve Scherf et al.
# Submitted via: ExactAudioCopyFreeDBPlugin 1.0
#
DISCID=6a0b680a
DTITLE=Tadeusz Nalepa - Flamenco i blues
DYEAR=1996
DGENRE=Blues
TTITLE0=Co jest co
TTITLE1=Nie mieć nic
TTITLE2=Nie chcę żyć
TTITLE3=I co?
TTITLE4=Wszystko ma swój czas
TTITLE5=List do nieba
TTITLE6=Skąd takie sny
TTITLE7=Uroda to mgła
TTITLE8=Tyrli, tyrli
TTITLE9=Flameco i blues
EXTD=YEAR: 1996 ID3G: 0
EXTT0=
EXTT1=
EXTT2=
EXTT3=
EXTT4=
EXTT5=
EXTT6=
EXTT7=
EXTT8=
EXTT9=
PLAYORDER=
